<?xml version="1.0" standalone="no"?>
<!DOCTYPE svg PUBLIC "-//W3C//DTD SVG 20010904//EN"
 "http://www.w3.org/TR/2001/REC-SVG-20010904/DTD/svg10.dtd">
<svg version="1.0" xmlns="http://www.w3.org/2000/svg"
 width="500.000000pt" height="500.000000pt" viewBox="0 0 500.000000 500.000000"
 preserveAspectRatio="xMidYMid meet">

<g transform="translate(0.000000,500.000000) scale(0.100000,-0.100000)"
fill="#000000" stroke="none">
<path d="M1258 3072 c-471 -470 -478 -478 -478 -517 0 -39 7 -47 478 -517 400
-400 482 -478 505 -478 73 0 124 69 93 127 -8 15 -163 176 -345 357 -181 182
-328 333 -325 338 3 5 27 20 54 33 60 30 135 33 315 10 219 -27 337 -17 533
47 140 46 126 49 176 -43 l26 -46 -40 -27 c-50 -33 -72 -66 -73 -112 -1 -44
21 -64 70 -64 80 0 125 54 127 153 l2 59 64 44 c36 24 68 44 72 44 8 0 58 -82
58 -96 0 -5 -16 -18 -37 -29 -64 -35 -95 -121 -57 -159 22 -23 95 -21 126 4
34 26 60 94 57 147 -3 42 -2 44 49 78 29 19 74 52 100 74 80 68 95 71 336 71
291 0 407 24 615 130 l64 32 89 -89 88 -88 -424 -425 c-234 -234 -429 -436
-434 -450 -23 -65 38 -132 104 -116 20 5 174 152 502 479 464 465 472 473 472
512 0 39 -8 47 -478 517 -437 438 -480 478 -510 478 -46 0 -71 -16 -88 -55
-10 -26 -11 -41 -3 -62 5 -15 159 -177 341 -359 l330 -331 -74 -31 c-162 -67
-317 -97 -553 -107 -88 -3 -188 -11 -222 -16 -65 -11 -146 -54 -210 -110 -45
-39 -105 -68 -110 -53 -2 6 -24 44 -48 85 -50 83 -54 112 -25 169 35 69 90 62
90 -12 0 -24 4 -37 10 -33 21 13 11 75 -16 102 -21 21 -32 25 -66 20 -92 -12
-145 -124 -103 -223 l14 -34 -42 -31 c-63 -46 -97 -62 -97 -47 0 7 -21 47 -45
88 -31 51 -45 85 -45 110 0 43 42 110 70 110 24 0 43 -34 37 -66 -6 -33 11
-41 19 -9 8 31 -12 82 -37 95 -34 19 -77 11 -112 -20 -46 -40 -60 -78 -55
-145 l5 -55 -64 -20 c-167 -52 -286 -61 -663 -51 -148 4 -201 -5 -264 -46
l-39 -25 -83 83 -84 84 424 425 c234 234 430 438 435 453 8 21 7 36 -3 62 -17
39 -42 55 -88 55 -30 0 -73 -40 -510 -478z m1037 -785 c-9 -57 -30 -87 -60
-87 -59 0 -52 74 13 131 31 27 36 29 44 15 5 -10 7 -36 3 -59z m282 7 c-7 -65
-29 -96 -66 -92 -22 3 -26 9 -29 41 -3 32 2 43 31 72 19 19 43 35 52 35 16 0
17 -7 12 -56z"/>
</g>
</svg>
