<svg version="1.1" id="Layer_1" xmlns="http://www.w3.org/2000/svg" xmlns:xlink="http://www.w3.org/1999/xlink" x="0px" y="0px"
	 width="100%" viewBox="0 0 496 496" enable-background="new 0 0 496 496" xml:space="preserve">
<path fill="#000000" opacity="1.000000" stroke="none" 
	d="
M258.441406,328.264557 
	C252.410828,317.101685 258.683929,302.059204 267.366364,293.519775 
	C272.786713,288.188660 279.423126,284.723511 286.003723,281.321045 
	C285.271118,274.654694 277.998108,261.423615 270.283966,252.807938 
	C263.505890,258.866913 256.386780,264.547729 248.565536,269.260620 
	C246.141479,270.721313 243.718277,272.191528 241.226013,273.529449 
	C233.231766,277.821014 233.657959,277.752991 234.648422,287.413330 
	C236.101746,301.588226 233.775574,315.047852 223.912704,326.129303 
	C215.570786,335.501892 201.799286,338.756042 190.050903,334.554230 
	C182.854614,331.980438 178.674103,323.794006 180.045212,315.400085 
	C182.532242,300.174744 192.150314,290.679474 205.115067,283.810974 
	C206.722855,282.959198 208.365570,282.173340 210.469193,281.117493 
	C208.786331,274.734070 205.700806,269.108765 202.240906,263.685638 
	C198.211197,257.369385 193.715408,251.334305 189.943710,244.872604 
	C178.729584,225.660461 181.338135,202.572418 196.117081,187.716293 
	C205.182037,178.603989 218.210342,175.178940 228.037491,179.324722 
	C238.480179,183.730179 244.467850,200.423859 239.243851,210.492020 
	C238.494247,211.936737 237.558746,213.202591 235.814041,212.633423 
	C233.885529,212.004288 233.628113,210.378860 234.094116,208.539841 
	C235.344330,203.606049 235.568100,198.642639 233.901596,193.774994 
	C231.075058,185.519119 225.938797,183.981857 219.069168,189.219955 
	C206.656799,198.684372 202.030548,217.149185 209.226532,230.928497 
	C216.362442,244.592789 226.932114,256.303406 231.851883,271.727173 
	C244.647217,265.682617 255.692642,258.458618 265.357178,249.157333 
	C267.730621,246.873108 265.754944,244.825439 264.774719,242.858047 
	C258.020325,229.301468 257.122070,215.526459 262.854187,201.377182 
	C268.261932,188.028564 281.600433,178.022430 294.226898,177.624832 
	C310.853333,177.101288 317.501068,190.556839 316.945770,203.603394 
	C316.862335,205.564423 316.241577,207.529434 315.676056,209.435257 
	C315.146545,211.219757 314.339844,213.217911 311.976227,212.573196 
	C309.716003,211.956680 309.707336,210.059036 310.313568,208.084335 
	C311.829071,203.147736 311.640594,198.248428 309.850403,193.406342 
	C306.927216,185.499710 301.828217,183.873642 295.257843,189.154587 
	C284.317322,197.947983 276.042480,216.643417 286.486664,233.526306 
	C291.567902,241.740082 297.554779,249.386597 301.908905,258.047668 
	C304.060699,262.327881 306.036621,266.696472 308.299469,271.461731 
	C318.540039,266.935486 327.597107,260.869629 336.129028,253.976074 
	C338.714020,251.887482 341.041107,249.480759 343.501282,247.236160 
	C344.930878,245.931824 346.419312,243.703949 348.487946,245.640533 
	C350.620300,247.636841 348.930969,249.710342 347.405609,251.252869 
	C344.717590,253.971161 341.977203,256.672699 339.008606,259.071716 
	C331.216766,265.368591 322.929688,270.955658 313.870117,275.286591 
	C310.970734,276.672668 309.581879,278.322998 310.229645,281.816315 
	C312.143646,292.138306 311.372955,302.369598 308.129242,312.351929 
	C302.344116,330.155182 285.582458,339.693054 268.207550,335.213165 
	C264.183350,334.175598 260.771912,332.328125 258.441406,328.264557 
M212.387726,307.843872 
	C212.606888,301.173920 213.568436,294.456604 211.576538,287.411285 
	C203.293076,290.412903 196.989594,295.036987 191.918961,301.422577 
	C187.242249,307.312073 185.154144,313.929840 186.226517,321.455566 
	C186.963455,326.627411 189.965805,329.335907 195.185852,329.727020 
	C200.886703,330.154205 204.652527,327.143585 207.571121,322.796295 
	C210.412979,318.563324 211.476059,313.675446 212.387726,307.843872 
M281.257416,325.795105 
	C290.604156,314.413818 288.818512,301.246521 288.341339,287.606354 
	C281.529816,289.168060 276.928467,292.486816 272.802277,296.279907 
	C265.530090,302.964966 260.821594,310.928162 262.251709,321.382965 
	C262.927826,326.325653 265.729706,329.056519 270.679535,329.670929 
	C274.605957,330.158264 277.861328,328.864838 281.257416,325.795105 
z"/>
<path fill="#000000" opacity="1.000000" stroke="none" 
	d="
M335.277832,375.518066 
	C332.068909,368.172974 332.892212,364.289825 338.940521,358.246033 
	C370.176636,327.033051 401.440552,295.847870 432.694672,264.652863 
	C435.996857,261.356934 439.137390,257.875366 442.648407,254.819397 
	C445.787323,252.087296 445.668701,250.170288 442.705963,247.232071 
	C421.880981,226.579666 401.224609,205.757339 380.500885,185.002777 
	C366.724304,171.205643 352.927185,157.429001 339.135101,143.647339 
	C336.393768,140.908066 333.904022,138.076294 333.591125,133.911728 
	C332.851532,124.068520 342.082092,117.654633 351.008942,121.848267 
	C353.312622,122.930496 355.174561,124.556816 356.954224,126.336639 
	C394.891144,164.277435 432.848938,202.197388 470.777679,240.146347 
	C478.138733,247.511337 478.126709,253.963226 470.799683,261.297028 
	C438.420959,293.705688 406.015778,326.087830 373.639252,358.498688 
	C367.516113,364.628326 361.609589,370.979584 355.368195,376.984436 
	C348.722534,383.378174 341.514771,382.829346 335.277832,375.518066 
z"/>
<path fill="#000000" opacity="1.000000" stroke="none" 
	d="
M79.338211,227.338348 
	C72.727348,233.950958 66.532654,240.492569 59.941429,246.606720 
	C56.468498,249.828262 56.327740,251.866898 59.825321,255.335968 
	C94.010139,289.241882 128.024353,323.319824 162.082977,357.352966 
	C165.137573,360.405304 168.334030,363.232544 168.428802,368.198944 
	C168.532623,373.639008 166.469162,377.559692 161.682434,379.993500 
	C156.902786,382.423737 151.968765,381.835266 147.869156,377.855865 
	C138.307556,368.574738 128.922974,359.110596 119.503326,349.683960 
	C90.417610,320.576660 61.350109,291.451141 32.273201,262.335022 
	C23.399055,253.448929 23.376886,248.068329 32.295490,239.145660 
	C69.747833,201.676239 107.215004,164.221634 144.676743,126.761620 
	C145.147964,126.290405 145.609085,125.808571 146.091690,125.349312 
	C152.205017,119.531799 159.756592,118.952843 164.817001,123.909828 
	C170.121094,129.105515 169.821274,136.755981 163.667404,142.936478 
	C135.689453,171.035355 107.623787,199.046860 79.338211,227.338348 
z"/>
</svg>